<svg xmlns="http://www.w3.org/2000/svg" xmlns:xlink="http://www.w3.org/1999/xlink" width="24" height="24" viewBox="0 0 24 24"><defs><clipPath id="b"><rect width="24" height="24"/></clipPath></defs><g id="a" clip-path="url(#b)"><g transform="translate(-0.5 -0.282)"><path d="M942,14h21V30.565H942Z" transform="translate(-940 -9)" fill="none" stroke="#707070" stroke-linecap="round" stroke-linejoin="round" stroke-width="1"/><path d="M947,12v5" transform="translate(-938.5 -9.718)" fill="none" stroke="#707070" stroke-linecap="round" stroke-width="1"/><path d="M955,12v5" transform="translate(-938.5 -9.718)" fill="none" stroke="#707070" stroke-linecap="round" stroke-width="1"/><path d="M945,18h3v3h-3Z" transform="translate(-940 -8)" fill="#707070"/><path d="M945,18h3v3h-3Z" transform="translate(-934 -8)" fill="#707070"/><path d="M945,18h3v3h-3Z" transform="translate(-928 -8)" fill="#707070"/><path d="M945,18h3v3h-3Z" transform="translate(-940 -2)" fill="#707070"/><path d="M945,18h3v3h-3Z" transform="translate(-934 -2)" fill="#707070"/><path d="M945,18h3v3h-3Z" transform="translate(-928 -2)" fill="#707070"/></g></g></svg>