<?xml version="1.0" encoding="UTF-8"?>
<svg xmlns="http://www.w3.org/2000/svg" xmlns:xlink="http://www.w3.org/1999/xlink" width="250pt" height="250pt" viewBox="0 0 250 250" version="1.1">
<g id="surface1227726">
<path style=" stroke:none;fill-rule:nonzero;fill:#5e6166;fill-opacity:1;" d="M 125 10 C 61.542969 10 10 61.542969 10 125 C 10 174.316406 41.171875 216.347656 84.84375 232.65625 C 85.058594 232.734375 85.253906 232.890625 85.46875 232.96875 C 88.984375 234.257812 92.578125 235.46875 96.25 236.40625 C 96.289062 236.425781 96.347656 236.386719 96.40625 236.40625 C 98.203125 236.855469 100.058594 237.285156 101.875 237.65625 C 102.1875 237.714844 102.480469 237.753906 102.8125 237.8125 C 104.882812 238.222656 106.953125 238.613281 109.0625 238.90625 C 110.136719 239.0625 111.25 239.101562 112.34375 239.21875 C 112.65625 239.257812 112.96875 239.335938 113.28125 239.375 C 114.589844 239.511719 115.839844 239.589844 117.1875 239.6875 C 119.765625 239.863281 122.382812 240 125 240 C 126.992188 240 128.984375 239.941406 130.9375 239.84375 C 133.242188 239.726562 135.46875 239.453125 137.65625 239.21875 C 138.75 239.101562 139.863281 239.0625 140.9375 238.90625 C 143.046875 238.613281 145.117188 238.222656 147.1875 237.8125 C 149.472656 237.363281 151.621094 236.972656 153.75 236.40625 C 157.421875 235.46875 161.015625 234.257812 164.53125 232.96875 C 164.746094 232.890625 164.941406 232.734375 165.15625 232.65625 C 208.828125 216.347656 240 174.316406 240 125 C 240 61.542969 188.457031 10 125 10 Z M 125 20 C 183.046875 20 230 66.953125 230 125 C 230 157.207031 215.605469 186.054688 192.8125 205.3125 C 191.191406 201.464844 188.457031 196.210938 184.0625 190.9375 C 170.058594 198.417969 150.644531 205 125 205 C 99.355469 205 79.941406 198.417969 65.9375 190.9375 C 61.542969 196.210938 58.808594 201.464844 57.1875 205.3125 C 34.394531 186.054688 20 157.207031 20 125 C 20 66.953125 66.953125 20 125 20 Z M 75.46875 53.4375 L 72.03125 55.9375 C 63.515625 62.363281 50.292969 80.585938 59.375 104.53125 C 55.546875 111.269531 45.195312 132.03125 45 159.6875 L 45 161.40625 L 45.9375 162.8125 C 46.914062 164.121094 70.644531 195 125 195 C 179.355469 195 203.085938 164.121094 204.0625 162.8125 L 205 161.40625 L 205 159.6875 C 204.804688 132.03125 194.472656 111.269531 190.625 104.53125 C 199.707031 80.585938 186.484375 62.363281 177.96875 55.9375 L 174.53125 53.4375 L 153.75 74.21875 C 148.886719 72.617188 138.867188 70 125 70 C 111.132812 70 101.113281 72.617188 96.25 74.21875 Z M 100 115 C 108.28125 115 115 121.71875 115 130 C 115 138.28125 108.28125 145 100 145 C 91.71875 145 85 138.28125 85 130 C 85 121.71875 91.71875 115 100 115 Z M 150 115 C 158.28125 115 165 121.71875 165 130 C 165 138.28125 158.28125 145 150 145 C 141.71875 145 135 138.28125 135 130 C 135 121.71875 141.71875 115 150 115 Z M 112.5 155 L 137.5 155 L 125 167.5 Z M 112.5 155 "/>
</g>
</svg>
